<svg xmlns="http://www.w3.org/2000/svg" viewBox="0 0 200 200" fill="none">
  <defs>
    <linearGradient id="bg" x1="0" y1="0" x2="1" y2="1">
      <stop offset="0%" stop-color="#0094FF"/>
      <stop offset="100%" stop-color="#00D4AA"/>
    </linearGradient>
    <linearGradient id="chart" x1="0" y1="1" x2="1" y2="0">
      <stop offset="0%" stop-color="#FFD700"/>
      <stop offset="100%" stop-color="#FFA502"/>
    </linearGradient>
  </defs>
  <circle cx="100" cy="100" r="96" fill="url(#bg)"/>
  <circle cx="100" cy="100" r="96" fill="rgba(0,0,0,0.15)"/>
  <circle cx="100" cy="100" r="58" stroke="white" stroke-width="2.5" fill="none" opacity="0.4"/>
  <ellipse cx="100" cy="100" rx="58" ry="22" stroke="white" stroke-width="1.5" fill="none" opacity="0.25"/>
  <line x1="42" y1="100" x2="158" y2="100" stroke="white" stroke-width="1.5" opacity="0.25"/>
  <ellipse cx="100" cy="100" rx="22" ry="58" stroke="white" stroke-width="1.5" fill="none" opacity="0.25"/>
  <rect x="56" y="118" width="14" height="24" rx="3" fill="url(#chart)" opacity="0.95"/>
  <rect x="76" y="106" width="14" height="36" rx="3" fill="url(#chart)" opacity="0.95"/>
  <rect x="96" y="90" width="14" height="52" rx="3" fill="url(#chart)" opacity="0.95"/>
  <rect x="116" y="74" width="14" height="68" rx="3" fill="url(#chart)" opacity="0.95"/>
  <polyline points="58,95 78,80 98,65 118,50" stroke="white" stroke-width="3" fill="none" stroke-linecap="round" stroke-linejoin="round" opacity="0.9"/>
  <polygon points="118,42 128,56 108,56" fill="white" opacity="0.9"/>
</svg>
